<?xml version="1.0" standalone="no"?>
<!DOCTYPE svg PUBLIC "-//W3C//DTD SVG 20010904//EN"
 "http://www.w3.org/TR/2001/REC-SVG-20010904/DTD/svg10.dtd">
<svg version="1.0" xmlns="http://www.w3.org/2000/svg"
 width="260.000000pt" height="260.000000pt" viewBox="0 0 260.000000 260.000000"
 preserveAspectRatio="xMidYMid meet">
<metadata>
Created by potrace 1.11, written by Peter Selinger 2001-2013
</metadata>
<g transform="translate(0.000000,260.000000) scale(0.100000,-0.100000)"
fill="#000000" stroke="none">
<path d="M200 2342 l0 -49 120 1 c132 0 165 -10 173 -53 2 -14 4 -408 3 -876
-1 -842 -2 -850 -22 -895 -41 -86 -101 -120 -216 -120 l-58 0 0 -47 0 -48 353
0 352 0 5 30 c10 53 2 65 -44 66 -118 1 -163 19 -203 79 -45 65 -45 78 -45
875 0 418 1 772 1 788 2 50 17 28 44 -65 47 -159 213 -713 338 -1123 22 -71
46 -152 54 -180 8 -27 45 -151 82 -275 l68 -225 37 -3 c36 -3 36 -3 52 50 18
62 176 636 181 658 2 8 20 74 40 145 20 72 38 137 40 145 2 8 31 114 65 235
127 456 202 720 205 724 3 2 3 -400 2 -892 -2 -807 -4 -898 -18 -912 -21 -21
-34 -23 -167 -24 l-113 -1 3 -47 3 -48 430 0 430 0 3 47 3 46 -130 3 c-109 3
-133 7 -148 22 -17 17 -18 69 -19 944 l-1 926 22 25 c20 24 26 25 146 26 l124
1 3 48 3 47 -310 0 -310 0 -20 -67 c-11 -38 -47 -167 -80 -288 -33 -121 -93
-341 -135 -490 -41 -148 -107 -387 -146 -530 -40 -143 -73 -261 -75 -263 -4
-4 -22 56 -201 663 -58 198 -118 401 -133 450 -16 50 -57 188 -91 308 l-64
217 -318 0 -318 0 0 -48z"/>
</g>
</svg>
